<svg width="452px" height="111px" viewBox="36 201 452 111" version="1.1" xmlns="http://www.w3.org/2000/svg" xmlns:xlink="http://www.w3.org/1999/xlink">
    <defs></defs>
    <path d="M443.53125,311 L456.59375,311 L456.59375,271.9375 C456.677084,267.187476 458.05207,263.750011 460.71875,261.625 C463.093762,259.458323 465.9479,258.375 469.28125,258.375 C472.239598,258.375 475.093736,259.458323 477.84375,261.625 L487.34375,250.3125 C483.468731,247.062484 478.927109,245.395834 473.71875,245.3125 C466.760382,245.3125 461.135438,247.874974 456.84375,253 L456.59375,253 L456.59375,246.125 L443.53125,246.125 L443.53125,311 Z" id="Shape" stroke="none" fill="#34A853" fill-rule="evenodd"></path>
    <path d="M434.75,282.5 L434.75,271.75 C434.666666,263.208291 432.020859,256.500024 426.8125,251.625 C421.687474,246.833309 415.416704,244.395834 408,244.3125 C404.916651,244.3125 401.791682,244.874994 398.625,246 C395.416651,247.125006 392.520846,248.958321 389.9375,251.5 C387.395821,254.000013 385.312508,257.416645 383.6875,261.75 C382.062492,266.000021 381.25,271.333301 381.25,277.75 C381.25,284.4167 382.187491,289.833313 384.0625,294 C385.770842,298.333355 387.999986,301.708321 390.75,304.125 C392.166674,305.291673 393.687492,306.270829 395.3125,307.0625 C396.854174,307.979171 398.437492,308.708331 400.0625,309.25 C403.312516,310.250005 406.645816,310.75 410.0625,310.75 C419.020878,310.833334 426.812467,307.333369 433.4375,300.25 L424,292.1875 C419.833312,296.395854 415.104193,298.5 409.8125,298.5 C405.270811,298.5 401.604181,297.125014 398.8125,294.375 C395.812485,291.666653 394.3125,287.708359 394.3125,282.5 L434.75,282.5 Z M394.3125,271.75 C394.562501,266.708308 395.916654,262.895846 398.375,260.3125 C400.875013,257.854154 404.083314,256.625 408,256.625 C411.916686,256.625 415.124987,257.854154 417.625,260.3125 C420.166679,262.895846 421.520832,266.708308 421.6875,271.75 L394.3125,271.75 Z" id="Shape" stroke="none" fill="#FABD2C" fill-rule="evenodd"></path>
    <path d="M360.53125,303.1875 L360.53125,310 L373.59375,310 L373.59375,218.875 L360.53125,218.875 L360.53125,252 C358.114571,249.708322 355.593763,247.833341 352.96875,246.375 C350.135402,244.999993 347.0521,244.3125 343.71875,244.3125 C335.802044,244.520834 330.010435,247.354139 326.34375,252.8125 C324.552074,254.854177 323.364586,257.54165 322.78125,260.875 C322.072913,264.166683 321.71875,269.708294 321.71875,277.5 C321.71875,285.166705 322.072913,290.66665 322.78125,294 C323.364586,297.500018 324.552074,300.270823 326.34375,302.3125 C328.302093,304.812513 330.739569,306.812493 333.65625,308.3125 C336.447931,309.854174 339.802064,310.666666 343.71875,310.75 C350.635451,310.583332 356.239562,308.062524 360.53125,303.1875 L360.53125,303.1875 Z M347.71875,257.375 C350.802099,257.375 353.239574,257.979161 355.03125,259.1875 C356.822926,260.395839 358.05208,261.979157 358.71875,263.9375 C359.552087,265.895843 360.114582,268.020822 360.40625,270.3125 C360.489584,272.604178 360.53125,274.999987 360.53125,277.5 C360.53125,279.791678 360.489584,282.124988 360.40625,284.5 C360.114582,286.916679 359.552087,289.104157 358.71875,291.0625 C358.05208,293.020843 356.822926,294.604161 355.03125,295.8125 C353.239574,297.062506 350.802099,297.6875 347.71875,297.6875 C344.635401,297.6875 342.281258,297.104173 340.65625,295.9375 C338.864574,294.729161 337.552087,293.187509 336.71875,291.3125 C335.927079,289.354157 335.406251,287.145846 335.15625,284.6875 C334.906249,282.354155 334.78125,279.958346 334.78125,277.5 C334.78125,274.916654 334.906249,272.395846 335.15625,269.9375 C335.406251,267.645822 335.927079,265.520843 336.71875,263.5625 C337.552087,261.604157 338.864574,260.062506 340.65625,258.9375 C342.281258,257.895828 344.635401,257.375 347.71875,257.375 L347.71875,257.375 Z" id="Shape" stroke="none" fill="#607D8B" fill-rule="evenodd"></path>
    <path d="M36.96875,310 L50.03125,310 L50.03125,245.125 L36.96875,245.125 L36.96875,310 Z M36.96875,231.9375 L50.03125,231.9375 L50.03125,218.875 L36.96875,218.875 L36.96875,231.9375 Z" id="Shape" stroke="none" fill="#2196F3" fill-rule="evenodd"></path>
    <path d="M70.40625,245.125 L63.90625,245.125 L63.90625,255.0625 L70.40625,255.0625 L70.40625,294 C70.40625,299.125026 71.906235,303.041653 74.90625,305.75 C77.8229312,308.583348 81.5728937,310 86.15625,310 L92.96875,310 L92.96875,297.6875 L88.09375,297.6875 C84.9270675,297.770834 83.3854162,296.166683 83.46875,292.875 L83.46875,255.0625 L92.96875,255.0625 L92.96875,245.125 L83.46875,245.125 L83.46875,225.375 L70.40625,225.375 L70.40625,245.125 Z" id="Shape" stroke="none" fill="#FABD2C" fill-rule="evenodd"></path>
    <path d="M113.65625,289.1875 L104.53125,298.125 C112.989626,305.875039 122.510364,309.75 133.09375,309.75 C140.885456,309.666666 147.281225,307.875018 152.28125,304.375 C157.322942,300.958316 159.885416,296.104198 159.96875,289.8125 C159.96875,284.437473 158.572931,280.000018 155.78125,276.5 C152.781235,272.916649 147.906284,270.875002 141.15625,270.375 L130.40625,269.5625 C127.239567,269.229165 125.031256,268.458339 123.78125,267.25 C122.406243,266.166661 121.760416,264.895841 121.84375,263.4375 C121.84375,261.145822 122.697908,259.270841 124.40625,257.8125 C126.031258,256.354159 128.885396,255.625 132.96875,255.625 C136.552101,255.625 139.718736,256.145828 142.46875,257.1875 C145.260431,258.354173 147.906238,259.833324 150.40625,261.625 L158.46875,252.1875 C155.302067,249.437486 151.71877,247.250008 147.71875,245.625 C145.635406,244.874996 143.406262,244.291669 141.03125,243.875 C138.656238,243.499998 135.968765,243.3125 132.96875,243.3125 C126.052049,243.3125 120.343773,244.97915 115.84375,248.3125 C111.218727,251.64585 108.864584,256.6458 108.78125,263.3125 C108.864584,268.854194 110.656233,273.166651 114.15625,276.25 C117.572934,279.416682 122.010389,281.249998 127.46875,281.75 L138.96875,282.75 C141.385429,282.833334 143.322909,283.354162 144.78125,284.3125 C146.197924,285.229171 146.90625,286.854155 146.90625,289.1875 C146.90625,291.812513 145.718762,293.854159 143.34375,295.3125 C140.968738,296.770841 137.906269,297.5 134.15625,297.5 C125.781208,297.5 118.947943,294.729194 113.65625,289.1875 L113.65625,289.1875 Z" id="Shape" stroke="none" fill="#34A853" fill-rule="evenodd"></path>
    <path d="M232.251953,280.71875 C227.699847,290.565153 220.822312,295.488281 211.619141,295.488281 C207.759746,295.488281 204.444675,294.671883 201.673828,293.039062 C198.853502,291.653639 196.577483,289.847667 194.845703,287.621094 C192.718088,285.295561 191.307946,282.252623 190.615234,278.492188 C189.823564,274.731752 189.427734,267.532605 189.427734,256.894531 C189.427734,246.256457 189.823564,239.007832 190.615234,235.148438 C191.307946,231.486961 192.718088,228.493501 194.845703,226.167969 C196.577483,223.941395 198.853502,222.085945 201.673828,220.601562 C204.444675,219.166659 207.759746,218.39974 211.619141,218.300781 C216.863959,218.39974 221.317039,219.90884 224.978516,222.828125 C228.491554,225.895849 230.916009,229.606749 232.251953,233.960938 L249.619141,233.960938 C247.887361,224.906205 243.731153,217.311229 237.150391,211.175781 C230.569629,205.089813 222.059297,201.997396 211.619141,201.898438 C203.108681,201.997396 196.008492,204.026022 190.318359,207.984375 C184.529268,211.893249 180.323581,216.346329 177.701172,221.34375 C176.068351,223.966159 174.856124,227.404927 174.064453,231.660156 C173.322262,235.915386 172.951172,244.32676 172.951172,256.894531 C172.951172,269.264385 173.322262,277.62628 174.064453,281.980469 C174.460288,284.306001 174.955075,286.235669 175.548828,287.769531 C176.192061,289.253914 176.909501,290.812492 177.701172,292.445312 C180.323581,297.442733 184.529268,301.846335 190.318359,305.65625 C196.008492,309.614603 203.108681,311.692707 211.619141,311.890625 C221.020229,311.890625 229.159471,309.218777 236.037109,303.875 C242.71683,298.481744 247.244129,290.763071 249.619141,280.71875 L232.251953,280.71875 Z" id="Shape" stroke="none" fill="#2196F3" fill-rule="evenodd"></path>
    <path d="M259.25,277.5 C259.25,284.333368 259.812494,289.541649 260.9375,293.125 C262.104173,296.708351 263.895821,299.812487 266.3125,302.4375 C268.104176,304.479177 270.604151,306.312492 273.8125,307.9375 C276.979182,309.729176 281.041642,310.666666 286,310.75 C291.125026,310.666666 295.270818,309.729176 298.4375,307.9375 C300.145842,307.187496 301.541661,306.291672 302.625,305.25 C303.833339,304.333329 304.854163,303.395838 305.6875,302.4375 C308.270846,299.812487 310.104161,296.708351 311.1875,293.125 C312.229172,289.541649 312.75,284.333368 312.75,277.5 C312.75,270.666632 312.229172,265.416685 311.1875,261.75 C310.104161,258.166649 308.270846,255.145846 305.6875,252.6875 C303.979158,250.520823 301.562516,248.583342 298.4375,246.875 C295.270818,245.249992 291.125026,244.395834 286,244.3125 C281.041642,244.395834 276.979182,245.249992 273.8125,246.875 C270.604151,248.583342 268.104176,250.520823 266.3125,252.6875 C263.895821,255.145846 262.104173,258.166649 260.9375,261.75 C259.812494,265.416685 259.25,270.666632 259.25,277.5 L259.25,277.5 Z M299.6875,277.625 C299.6875,282.041689 299.479169,285.291656 299.0625,287.375 C298.645831,289.500011 297.791673,291.374992 296.5,293 C295.541662,294.250006 294.125009,295.354162 292.25,296.3125 C290.458324,297.229171 288.375012,297.6875 286,297.6875 C283.791656,297.6875 281.750009,297.229171 279.875,296.3125 C278.083324,295.354162 276.625006,294.250006 275.5,293 C274.374994,291.374992 273.562502,289.500011 273.0625,287.375 C272.562498,285.291656 272.3125,282.000023 272.3125,277.5 C272.3125,272.958311 272.562498,269.625011 273.0625,267.5 C273.562502,265.458323 274.374994,263.666674 275.5,262.125 C276.625006,260.666659 278.083324,259.520837 279.875,258.6875 C281.750009,257.812496 283.791656,257.375 286,257.375 C288.375012,257.375 290.458324,257.812496 292.25,258.6875 C294.125009,259.520837 295.541662,260.666659 296.5,262.125 C297.791673,263.666674 298.645831,265.458323 299.0625,267.5 C299.479169,269.625011 299.6875,272.999977 299.6875,277.625 L299.6875,277.625 Z" id="o" stroke="none" fill="#F44336" fill-rule="evenodd"></path>
</svg>